#!OML:ASF F:\VICON\USERDATA\INSTALL\rory3\rory3.ASF
:FULLY-SPECIFIED
:DEGREES
313
root -5.99474 18.2106 -12.0226 -169.367 -44.1182 177.115
lowerback -7.69778 -1.45538 -3.99343
upperback -2.11437 -1.71437 -1.53713
thorax 2.19215 -0.91966 0.490044
lowerneck -17.8759 0.780382 2.15037
upperneck 24.9291 0.769151 -3.07821
head 11.0456 -0.0464731 -1.41126
rclavicle 2.70906e-014 1.47101e-014
rhumerus -32.9404 11.6029 -92.8892
rradius 35.8065
rwrist 1.6462
rhand -21.3103 11.6877
rfingers 7.12502
rthumb 5.07476 -18.2315
lclavicle 2.70906e-014 1.47101e-014
lhumerus -35.8014 -17.7935 88.6177
lradius 49.8663
lwrist 17.3869
lhand -10.319 26.7429
lfingers 7.12502
lthumb 15.6765 56.1278
rfemur -28.5441 3.45434 10.5357
rtibia 30.3003
rfoot -13.384 12.986
rtoes -15.0682
lfemur -17.8918 5.11163 -26.6113
ltibia 30.2949
lfoot -19.541 -6.30577
ltoes -7.42497
314
root -6.02669 18.213 -12.0746 -169.248 -45.201 176.98
lowerback -7.43135 -1.58127 -4.10547
upperback -2.20833 -1.89268 -1.46613
thorax 1.95964 -1.00403 0.618165
lowerneck -17.8352 0.863004 2.10548
upperneck 25.11 0.93546 -3.23639
head 11.1114 -0.00101602 -1.44051
rclavicle 1.68718e-014 7.83212e-014
rhumerus -33.1753 11.863 -92.8824
rradius 35.9121
rwrist 1.32305
rhand -21.4531 11.6435
rfingers 7.12502
rthumb 4.9369 -18.2789
lclavicle 1.68718e-014 7.83212e-014
lhumerus -36.0369 -18.0001 88.8249
lradius 49.8503
lwrist 17.5656
lhand -10.0931 26.7555
lfingers 7.12502
lthumb 15.894 56.1233
rfemur -28.5834 3.86113 10.2147
rtibia 29.6754
rfoot -12.4508 13.6258
rtoes -14.7231
lfemur -17.5837 4.96062 -26.4748
ltibia 30.0665
lfoot -19.4352 -7.28367
ltoes -7.31765
315
root -6.05884 18.2127 -12.1282 -169.232 -46.1291 176.962
lowerback -7.32521 -1.578 -3.9975
upperback -2.16982 -1.89661 -1.52582
thorax 1.93558 -1.00476 0.498482
lowerneck -17.9109 0.927642 2.28604
upperneck 25.2013 1.02777 -3.42827
head 11.1658 0.0334527 -1.52934
rclavicle -5.96478e-014 7.95139e-015
rhumerus -33.207 11.84 -92.9775
rradius 36.0427
rwrist 1.02067
rhand -21.6256 11.5676
rfingers 7.12502
rthumb 4.77028 -18.3587
lclavicle -5.96478e-014 7.95139e-015
lhumerus -36.063 -18.3413 88.8557
lradius 49.8059
lwrist 17.7173
lhand -9.9999 26.8585
lfingers 7.12502
lthumb 15.9837 56.2191
rfemur -28.6156 4.42536 9.93153
rtibia 29.1171
rfoot -11.8192 14.4352
rtoes -14.5389
lfemur -17.2484 5.0777 -26.2566
ltibia 29.8195
lfoot -19.3061 -8.46287
ltoes -6.96601
316
root -6.09213 18.2139 -12.184 -169.13 -46.9377 176.927
lowerback -7.42544 -1.5415 -3.97974
upperback -2.09006 -1.83701 -1.53645
thorax 2.07065 -0.976222 0.478688
lowerneck -17.9255 0.957003 2.34514
upperneck 25.1934 1.10926 -3.61738
head 11.17 0.0539249 -1.59618
rclavicle 5.21251e-014 2.06736e-014
rhumerus -33.1297 11.6663 -92.9049
rradius 36.1148
rwrist 0.955152
rhand -21.463 11.5853
rfingers 7.12502
rthumb 4.92729 -18.3374
lclavicle 5.21251e-014 2.06736e-014
lhumerus -35.9958 -18.4611 88.9392
lradius 49.7073
lwrist 17.6683
lhand -9.98536 27.0452
lfingers 7.12502
lthumb 15.9977 56.4046
rfemur -28.7784 4.94963 9.6464
rtibia 28.6031
rfoot -11.3956 15.5772
rtoes -15.3134
lfemur -16.97 4.99601 -26.0469
ltibia 29.5744
lfoot -19.2959 -9.34618
ltoes -6.86538
317
root -6.12679 18.2204 -12.24 -168.937 -47.7898 176.782
lowerback -7.50333 -1.51186 -4.02187
upperback -2.03404 -1.78544 -1.56142
thorax 2.17031 -0.95179 0.478068
lowerneck -17.9636 0.962731 2.34669
upperneck 25.269 1.15462 -3.74686
head 11.2085 0.0575548 -1.63859
rclavicle -1.76508e-013 4.25399e-014
rhumerus -33.0911 11.6239 -92.8657
rradius 36.1422
rwrist 0.774377
rhand -21.5053 11.7321
rfingers 7.12502
rthumb 4.88645 -18.1916
lclavicle -1.76508e-013 4.25399e-014
lhumerus -35.9746 -18.6165 89.0105
lradius 49.6023
lwrist 17.5982
lhand -9.94111 27.2989
lfingers 7.12502
lthumb 16.0404 56.6549
rfemur -28.9159 5.41221 9.28225
rtibia 28.0884
rfoot -10.7026 16.9387
rtoes -15.0042
lfemur -16.7154 4.71812 -25.8929
ltibia 29.3656
lfoot -19.2432 -10.1217
ltoes -6.80405
318
root -6.161 18.2248 -12.2942 -168.97 -48.7793 176.858
lowerback -7.45886 -1.52861 -3.89186
upperback -2.00122 -1.81488 -1.51739
thorax 2.17854 -0.964389 0.448782
lowerneck -17.85 0.986628 2.34943
upperneck 25.2485 1.22998 -3.89181
head 11.1823 0.0745136 -1.68029
rclavicle -3.97321e-014 -2.38542e-015
rhumerus -33.1436 11.8167 -92.8582
rradius 36.1853
rwrist 0.511926
rhand -21.5959 11.8004
rfingers 7.12502
rthumb 4.79896 -18.1253
lclavicle -3.97321e-014 -2.38542e-015
lhumerus -36.0732 -18.8021 89.1795
lradius 49.4098
lwrist 17.6737
lhand -10.0995 27.1098
lfingers 7.12502
lthumb 15.8878 56.478
rfemur -28.9052 5.86973 9.08517
rtibia 27.612
rfoot -9.83056 18.2192
rtoes -13.5528
lfemur -16.424 4.44709 -25.5769
ltibia 29.1826
lfoot -19.2089 -10.8768
ltoes -7.4763
319
root -6.19261 18.2281 -12.3508 -169.121 -49.7912 177.106
lowerback -7.38285 -1.51178 -3.69694
upperback -2.02889 -1.80988 -1.42118
thorax 2.10518 -0.95819 0.442336
lowerneck -17.5866 1.00973 2.30529
upperneck 25.188 1.3105 -4.01638
head 11.1115 0.092254 -1.70475
rclavicle -3.92972e-014 -1.27222e-014
rhumerus -33.3358 11.9178 -92.8014
rradius 36.2401
rwrist 0.329116
rhand -21.7885 11.8104
rfingers 7.12502
rthumb 4.61303 -18.1193
lclavicle -3.92972e-014 -1.27222e-014
lhumerus -36.2314 -18.7653 89.4027
lradius 49.1263
lwrist 17.5989
lhand -10.1099 26.9094
lfingers 7.12502
lthumb 15.8778 56.2784
rfemur -28.8462 6.28886 9.03474
rtibia 27.157
rfoot -9.04307 19.4013
rtoes -12.2638
lfemur -16.1924 4.07683 -25.1266
ltibia 29.0829
lfoot -19.2555 -11.4514
ltoes -7.87009
320
root -6.22129 18.2301 -12.4087 -169.019 -50.8401 177.017
lowerback -7.34063 -1.51275 -3.77754
upperback -2.0215 -1.8055 -1.37724
thorax 2.09299 -0.954989 0.53415
lowerneck -17.4388 1.05649 2.25897
upperneck 25.2041 1.40709 -4.07338
head 11.0924 0.124629 -1.70354
rclavicle -1.75427e-014 -5.1684e-015
rhumerus -33.4606 11.8056 -92.6766
rradius 36.3349
rwrist 0.363847
rhand -21.954 11.5338
rfingers 7.12502
rthumb 4.45321 -18.3994
lclavicle -1.75427e-014 -5.1684e-015
lhumerus -36.257 -18.74 89.5216
lradius 48.8101
lwrist 17.241
lhand -10.1438 26.8877
lfingers 7.12502
lthumb 15.8452 56.2593
rfemur -28.7358 6.61382 8.77696
rtibia 26.7035
rfoot -8.45631 20.5092
rtoes -12.0879
lfemur -15.9656 3.59165 -24.9066
ltibia 29.0976
lfoot -19.4963 -11.8248
ltoes -9.28189
321
root -6.25084 18.2231 -12.4661 -169.015 -51.9658 176.989
lowerback -7.30309 -1.52447 -3.73788
upperback -1.93442 -1.81774 -1.36333
thorax 2.16207 -0.960368 0.524688
lowerneck -17.386 1.12297 2.31646
upperneck 25.2047 1.52176 -4.19339
head 11.0882 0.168738 -1.74013
rclavicle -5.24916e-014 1.03368e-014
rhumerus -33.454 11.7617 -92.5991
rradius 36.4211
rwrist 0.331978
rhand -22.0014 11.3104
rfingers 7.12502
rthumb 4.40746 -18.6238
lclavicle -5.24916e-014 1.03368e-014
lhumerus -36.2371 -18.8375 89.544
lradius 48.5711
lwrist 16.9488
lhand -10.2007 26.6981
lfingers 7.12502
lthumb 15.7904 56.0741
rfemur -28.5183 6.92934 8.56094
rtibia 26.3059
rfoot -7.51443 21.5944
rtoes -11.5099
lfemur -15.6346 3.20117 -24.6577
ltibia 29.1383
lfoot -20.0534 -11.9637
ltoes -12.126
322
root -6.28074 18.2108 -12.5229 -169.007 -53.1074 176.95
lowerback -7.28036 -1.5338 -3.60979
upperback -1.84284 -1.83221 -1.37185
thorax 2.24074 -0.966731 0.441994
lowerneck -17.2624 1.19091 2.36257
upperneck 25.1866 1.65362 -4.36316
head 11.0645 0.213132 -1.79017
rclavicle -4.88513e-014 2.38542e-015
rhumerus -33.3848 11.7433 -92.5375
rradius 36.2664
rwrist 0.311171
rhand -22.0444 11.3056
rfingers 7.12502
rthumb 4.36586 -18.6294
lclavicle -4.88513e-014 2.38542e-015
lhumerus -36.2833 -19.0698 89.6641
lradius 48.4219
lwrist 17.4894
lhand -10.2008 27.1066
lfingers 7.12502
lthumb 15.7902 56.4825
rfemur -28.267 7.27813 8.33579
rtibia 26.0298
rfoot -6.52697 22.5143
rtoes -10.6782
lfemur -15.3507 2.86459 -24.4042
ltibia 29.12
lfoot -20.3631 -12.4241
ltoes -13.5893
323
root -6.31332 18.2075 -12.5806 -168.666 -54.169 176.496
lowerback -7.24994 -1.50686 -3.76312
upperback -1.78289 -1.78158 -1.42604
thorax 2.28672 -0.942616 0.476312
lowerneck -17.132 1.24735 2.34749
upperneck 25.2652 1.77839 -4.51468
head 11.075 0.247376 -1.82641
rclavicle -1.42752e-014 4.37326e-015
rhumerus -33.3914 11.5593 -92.3538
rradius 36.1274
rwrist 0.605461
rhand -21.7434 11.3565
rfingers 7.12502
rthumb 4.6565 -18.5723
lclavicle -1.42752e-014 4.37326e-015
lhumerus -36.3608 -19.4028 89.9584
lradius 48.1884
lwrist 18.545
lhand -10.7073 27.8761
lfingers 7.12502
lthumb 15.3025 57.29
rfemur -28.0225 7.59789 7.85901
rtibia 25.83
rfoot -6.03974 23.1904
rtoes -10.5686
lfemur -15.0879 2.40462 -24.4051
ltibia 29.0208
lfoot -20.2236 -13.0714
ltoes -12.9033
